HIERARCHY
ROOT Hips
{
	OFFSET 0.053599 88.859886 3.107447
	CHANNELS 6 Xposition Yposition Zposition Zrotation Yrotation Xrotation 
	JOINT Spine
	{
		OFFSET -0.000000 8.814246 -2.080107
		CHANNELS 3 Zrotation Yrotation Xrotation
		JOINT Spine1
		{
			OFFSET 0.000000 8.844141 0.000000
			CHANNELS 3 Zrotation Yrotation Xrotation
			JOINT Spine2
			{
				OFFSET -0.000000 11.682268 0.000000
				CHANNELS 3 Zrotation Yrotation Xrotation
				JOINT Spine3
				{
					OFFSET 0.000000 11.746700 0.000000
					CHANNELS 3 Zrotation Yrotation Xrotation
					JOINT Neck
					{
						OFFSET -0.000000 17.658264 -0.000000
						CHANNELS 3 Zrotation Yrotation Xrotation
						JOINT Neck1
						{
							OFFSET -0.000000 5.101515 -0.000000
							CHANNELS 3 Zrotation Yrotation Xrotation
							JOINT Head
							{
								OFFSET 0.000000 5.101515 0.000000
								CHANNELS 3 Zrotation Yrotation Xrotation
								JOINT HeadEnd
								{
									OFFSET 0.000000 11.655085 0.000000
									CHANNELS 3 Zrotation Yrotation Xrotation
									End Site
									{
										OFFSET 0.000000 0.000000 0.000000
									}
								}
							}
						}
					}
					JOINT RightShoulder
					{
						OFFSET -2.625389 11.175210 0.000000
						CHANNELS 3 Zrotation Yrotation Xrotation
						JOINT RightArm
						{
							OFFSET -0.000000 10.434715 -0.000000
							CHANNELS 3 Zrotation Yrotation Xrotation
							JOINT RightForeArm
							{
								OFFSET -0.000000 29.628420 0.000000
								CHANNELS 3 Zrotation Yrotation Xrotation
								JOINT RightHand
								{
									OFFSET -0.000000 22.857611 0.000000
									CHANNELS 3 Zrotation Yrotation Xrotation
									JOINT RightHandThumb1
									{
										OFFSET -2.867323 3.959563 2.944291
										CHANNELS 3 Zrotation Yrotation Xrotation
										JOINT RightHandThumb2
										{
											OFFSET 0.000000 3.350399 0.000000
											CHANNELS 3 Zrotation Yrotation Xrotation
											JOINT RightHandThumb3
											{
												OFFSET 0.000000 3.756509 -0.000000
												CHANNELS 3 Zrotation Yrotation Xrotation
												JOINT RightHandThumb4
												{
													OFFSET 0.000000 3.147345 0.000000
													CHANNELS 3 Zrotation Yrotation Xrotation
													End Site
													{
														OFFSET 0.000000 0.000000 0.000000
													}
												}
											}
										}
									}
									JOINT RightHandIndex1
									{
										OFFSET -0.086752 10.030893 2.345280
										CHANNELS 3 Zrotation Yrotation Xrotation
										JOINT RightHandIndex2
										{
											OFFSET -0.000000 4.061090 0.000000
											CHANNELS 3 Zrotation Yrotation Xrotation
											JOINT RightHandIndex3
											{
												OFFSET -0.000000 3.248873 0.000000
												CHANNELS 3 Zrotation Yrotation Xrotation
												JOINT RightHandIndex4
												{
													OFFSET 0.000000 2.639709 -0.000000
													CHANNELS 3 Zrotation Yrotation Xrotation
													End Site
													{
														OFFSET 0.000000 0.000000 0.000000
													}
												}
											}
										}
									}
									JOINT RightHandMiddle1
									{
										OFFSET 0.104102 9.502952 0.006768
										CHANNELS 3 Zrotation Yrotation Xrotation
										JOINT RightHandMiddle2
										{
											OFFSET 0.000000 4.568727 0.000000
											CHANNELS 3 Zrotation Yrotation Xrotation
											JOINT RightHandMiddle3
											{
												OFFSET 0.000000 3.654981 -0.000000
												CHANNELS 3 Zrotation Yrotation Xrotation
												JOINT RightHandMiddle4
												{
													OFFSET -0.000000 2.741236 -0.000000
													CHANNELS 3 Zrotation Yrotation Xrotation
													End Site
													{
														OFFSET 0.000000 0.000000 0.000000
													}
												}
											}
										}
									}
									JOINT RightHandRing1
									{
										OFFSET 0.086752 8.921708 -2.267442
										CHANNELS 3 Zrotation Yrotation Xrotation
										JOINT RightHandRing2
										{
											OFFSET -0.000000 4.061090 0.000000
											CHANNELS 3 Zrotation Yrotation Xrotation
											JOINT RightHandRing3
											{
												OFFSET 0.000000 3.654981 -0.000000
												CHANNELS 3 Zrotation Yrotation Xrotation
												JOINT RightHandRing4
												{
													OFFSET 0.000000 2.741236 -0.000000
													CHANNELS 3 Zrotation Yrotation Xrotation
													End Site
													{
														OFFSET 0.000000 0.000000 0.000000
													}
												}
											}
										}
									}
									JOINT RightHandPinky1
									{
										OFFSET -0.173504 7.976997 -4.467199
										CHANNELS 3 Zrotation Yrotation Xrotation
										JOINT RightHandPinky2
										{
											OFFSET 0.000000 3.350399 -0.000000
											CHANNELS 3 Zrotation Yrotation Xrotation
											JOINT RightHandPinky3
											{
												OFFSET -0.000000 2.842763 0.000000
												CHANNELS 3 Zrotation Yrotation Xrotation
												JOINT RightHandPinky4
												{
													OFFSET -0.000000 2.639709 0.000000
													CHANNELS 3 Zrotation Yrotation Xrotation
													End Site
													{
														OFFSET 0.000000 0.000000 0.000000
													}
												}
											}
										}
									}
									JOINT RightForeArmEnd
									{
										OFFSET 0.000000 0.000000 0.000000
										CHANNELS 3 Zrotation Yrotation Xrotation
										End Site
										{
											OFFSET 0.000000 0.000000 0.000000
										}
									}
								}
								JOINT RightArmEnd
								{
									OFFSET 0.000000 0.000000 0.000000
									CHANNELS 3 Zrotation Yrotation Xrotation
									End Site
									{
										OFFSET 0.000000 0.000000 0.000000
									}
								}
							}
						}
					}
					JOINT LeftShoulder
					{
						OFFSET 2.625389 11.175210 0.000000
						CHANNELS 3 Zrotation Yrotation Xrotation
						JOINT LeftArm
						{
							OFFSET 0.000000 10.813635 -0.000000
							CHANNELS 3 Zrotation Yrotation Xrotation
							JOINT LeftForeArm
							{
								OFFSET 0.000000 28.724781 0.000000
								CHANNELS 3 Zrotation Yrotation Xrotation
								JOINT LeftHand
								{
									OFFSET 0.644384 25.716167 -0.328871
									CHANNELS 3 Zrotation Yrotation Xrotation
									JOINT LeftHandThumb1
									{
										OFFSET 2.867323 3.959563 2.944291
										CHANNELS 3 Zrotation Yrotation Xrotation
										JOINT LeftHandThumb2
										{
											OFFSET 0.000000 3.350399 0.000000
											CHANNELS 3 Zrotation Yrotation Xrotation
											JOINT LeftHandThumb3
											{
												OFFSET -0.000000 3.756509 0.000000
												CHANNELS 3 Zrotation Yrotation Xrotation
												JOINT LeftHandThumb4
												{
													OFFSET -0.000000 3.100000 0.000000
													CHANNELS 3 Zrotation Yrotation Xrotation
													End Site
													{
														OFFSET 0.000000 0.000000 0.000000
													}
												}
											}
										}
									}
									JOINT LeftHandIndex1
									{
										OFFSET 0.086752 10.030893 2.345280
										CHANNELS 3 Zrotation Yrotation Xrotation
										JOINT LeftHandIndex2
										{
											OFFSET -0.000000 4.061090 -0.000000
											CHANNELS 3 Zrotation Yrotation Xrotation
											JOINT LeftHandIndex3
											{
												OFFSET 0.000000 3.248873 -0.000000
												CHANNELS 3 Zrotation Yrotation Xrotation
												JOINT LeftHandIndex4
												{
													OFFSET 0.000000 2.639709 -0.000000
													CHANNELS 3 Zrotation Yrotation Xrotation
													End Site
													{
														OFFSET 0.000000 0.000000 0.000000
													}
												}
											}
										}
									}
									JOINT LeftHandMiddle1
									{
										OFFSET -0.104102 9.502952 0.006768
										CHANNELS 3 Zrotation Yrotation Xrotation
										JOINT LeftHandMiddle2
										{
											OFFSET -0.000000 4.568727 -0.000000
											CHANNELS 3 Zrotation Yrotation Xrotation
											JOINT LeftHandMiddle3
											{
												OFFSET 0.000000 3.654981 0.000000
												CHANNELS 3 Zrotation Yrotation Xrotation
												JOINT LeftHandMiddle4
												{
													OFFSET 0.000000 2.741236 -0.000000
													CHANNELS 3 Zrotation Yrotation Xrotation
													End Site
													{
														OFFSET 0.000000 0.000000 0.000000
													}
												}
											}
										}
									}
									JOINT LeftHandRing1
									{
										OFFSET -0.086752 8.921708 -2.267442
										CHANNELS 3 Zrotation Yrotation Xrotation
										JOINT LeftHandRing2
										{
											OFFSET 0.000000 4.061090 0.000000
											CHANNELS 3 Zrotation Yrotation Xrotation
											JOINT LeftHandRing3
											{
												OFFSET 0.000000 3.654981 0.000000
												CHANNELS 3 Zrotation Yrotation Xrotation
												JOINT LeftHandRing4
												{
													OFFSET 0.000000 2.741236 0.000000
													CHANNELS 3 Zrotation Yrotation Xrotation
													End Site
													{
														OFFSET 0.000000 0.000000 0.000000
													}
												}
											}
										}
									}
									JOINT LeftHandPinky1
									{
										OFFSET 0.173504 7.976997 -4.467199
										CHANNELS 3 Zrotation Yrotation Xrotation
										JOINT LeftHandPinky2
										{
											OFFSET -0.000000 3.350399 -0.000000
											CHANNELS 3 Zrotation Yrotation Xrotation
											JOINT LeftHandPinky3
											{
												OFFSET 0.000000 2.842763 0.000000
												CHANNELS 3 Zrotation Yrotation Xrotation
												JOINT LeftHandPinky4
												{
													OFFSET -0.000000 2.639709 -0.000000
													CHANNELS 3 Zrotation Yrotation Xrotation
													End Site
													{
														OFFSET 0.000000 0.000000 0.000000
													}
												}
											}
										}
									}
									JOINT LeftForeArmEnd
									{
										OFFSET 0.000000 0.000000 0.000000
										CHANNELS 3 Zrotation Yrotation Xrotation
										End Site
										{
											OFFSET 0.000000 0.000000 0.000000
										}
									}
								}
								JOINT LeftArmEnd
								{
									OFFSET 0.000000 0.000000 0.000000
									CHANNELS 3 Zrotation Yrotation Xrotation
									End Site
									{
										OFFSET 0.000000 0.000000 0.000000
									}
								}
							}
						}
					}
				}
			}
		}
	}
	JOINT RightUpLeg
	{
		OFFSET -11.289943 0.000000 0.000000
		CHANNELS 3 Zrotation Yrotation Xrotation
		JOINT RightLeg
		{
			OFFSET 0.000000 -38.200325 0.000000
			CHANNELS 3 Zrotation Yrotation Xrotation
			JOINT RightFoot
			{
				OFFSET -0.000000 -39.900856 -0.000000
				CHANNELS 3 Zrotation Yrotation Xrotation
				JOINT RightToeBase
				{
					OFFSET 0.000000 0.000000 15.261641
					CHANNELS 3 Zrotation Yrotation Xrotation
					JOINT RightToeBaseEnd
					{
						OFFSET 0.000000 0.000000 7.370709
						CHANNELS 3 Zrotation Yrotation Xrotation
						End Site
						{
							OFFSET 0.000000 0.000000 0.000000
						}
					}
				}
				JOINT RightLegEnd
				{
					OFFSET 0.000000 0.000000 0.000000
					CHANNELS 3 Zrotation Yrotation Xrotation
					End Site
					{
						OFFSET 0.000000 0.000000 0.000000
					}
				}
			}
			JOINT RightUpLegEnd
			{
				OFFSET 0.000000 0.000000 0.000000
				CHANNELS 3 Zrotation Yrotation Xrotation
				End Site
				{
					OFFSET 0.000000 0.000000 0.000000
				}
			}
		}
	}
	JOINT LeftUpLeg
	{
		OFFSET 11.315661 -0.000000 0.000000
		CHANNELS 3 Zrotation Yrotation Xrotation
		JOINT LeftLeg
		{
			OFFSET -0.000000 -38.200325 -0.000000
			CHANNELS 3 Zrotation Yrotation Xrotation
			JOINT LeftFoot
			{
				OFFSET 0.000000 -39.900856 -0.000000
				CHANNELS 3 Zrotation Yrotation Xrotation
				JOINT LeftToeBase
				{
					OFFSET -0.000000 -0.000000 15.261641
					CHANNELS 3 Zrotation Yrotation Xrotation
					JOINT LeftToeBaseEnd
					{
						OFFSET 0.000000 -0.000000 7.539996
						CHANNELS 3 Zrotation Yrotation Xrotation
						End Site
						{
							OFFSET 0.000000 0.000000 0.000000
						}
					}
				}
				JOINT LeftLegEnd
				{
					OFFSET 0.000000 0.000000 0.000000
					CHANNELS 3 Zrotation Yrotation Xrotation
					End Site
					{
						OFFSET 0.000000 0.000000 0.000000
					}
				}
			}
			JOINT LeftUpLegEnd
			{
				OFFSET 0.000000 0.000000 0.000000
				CHANNELS 3 Zrotation Yrotation Xrotation
				End Site
				{
					OFFSET 0.000000 0.000000 0.000000
				}
			}
		}
	}
}
MOTION
Frames: 5
Frame Time: 0.016667
0.053599 88.859886 3.107447 0.490481 0.055862 -6.497332 0.023754 -0.000539 5.886370 -1.012250 0.067046 0.861970 0.478071 -2.416792 3.829567 0.155030 -0.780500 1.929224 2.330515 0.848112 5.016849 0.371683 2.117863 -3.221864 -0.714533 -0.852149 -18.222401 0.000000 0.000000 0.000000 92.418694 -0.394880 9.707912 65.456573 -33.431271 5.091406 -0.130291 12.440493 22.353239 6.882370 13.743960 -6.458578 19.861429 30.097643 62.040974 -8.462701 -12.164348 -20.450144 -6.325801 -8.139122 -14.332924 0.000000 0.000000 0.000000 12.621688 -10.712396 0.231899 8.905269 0.376633 1.323778 8.902945 -0.111869 1.243825 0.000000 0.000000 0.000000 11.194713 -5.446730 -1.239449 7.889823 0.455857 0.481039 7.889222 -0.037052 0.412494 0.000000 0.000000 0.000000 10.912717 2.564455 -1.535874 7.825817 -0.947299 -0.611652 7.824722 0.070320 -0.477096 0.000000 0.000000 0.000000 9.631022 11.185607 -2.805182 7.161172 -1.900893 -1.652070 7.157181 0.085565 -1.400512 0.000000 0.000000 0.000000 0.000000 0.000000 0.000000 0.000000 0.000000 0.000000 -90.370071 0.051974 5.208683 -71.842018 19.306828 -7.574249 -0.664994 -8.642401 40.885647 -0.139946 -25.486511 -15.477552 -20.250540 -29.996990 61.691063 8.807010 12.918287 -21.553112 6.618044 8.635277 -15.110494 0.000000 0.000000 0.000000 -16.168392 -5.636370 -1.918335 -11.569428 0.324957 -1.715407 -11.569072 -0.164917 -1.615128 0.000000 0.000000 0.000000 -15.643335 -0.758781 -1.694552 -11.169063 0.440303 -0.678956 -11.168735 -0.058746 -0.582722 0.000000 0.000000 0.000000 -18.003109 7.607869 -1.025503 -12.703986 -0.874371 0.992852 -12.702737 0.099213 0.772902 0.000000 0.000000 0.000000 -18.852142 16.262062 -0.245862 -13.102126 -1.657223 2.980032 -13.096694 0.281077 2.526406 0.000000 0.000000 0.000000 0.000000 0.000000 0.000000 0.000000 0.000000 0.000000 -1.045058 -10.518975 11.869204 -0.078405 -0.635030 3.758801 -2.197730 -7.901679 18.681496 -0.890004 0.828132 -18.870453 0.000000 0.000000 0.000000 0.000000 0.000000 0.000000 0.000000 0.000000 0.000000 -1.784023 -6.543907 7.474547 0.053202 0.398207 7.545935 3.843466 -1.785134 17.966772 0.194973 -0.390531 -20.817129 0.000000 0.000000 0.000000 0.000000 0.000000 0.000000 0.000000 0.000000 0.000000 
0.112535 88.912628 2.911990 -0.278561 -0.302988 -7.326052 1.303400 -0.185830 6.642025 -0.967035 0.119990 2.682193 0.752289 -1.613937 1.555658 -0.893551 -0.170527 3.092985 1.317176 2.295708 3.132073 0.350556 2.962745 -3.807875 -1.051231 -0.586868 -18.458326 0.000000 0.000000 0.000000 92.971626 -0.450935 9.596913 64.987801 -32.168419 4.025796 -0.116957 13.084542 23.204630 6.801765 13.137375 -6.895951 19.881582 30.091810 62.069901 -8.439357 -12.091293 -20.453495 -6.298511 -8.103349 -14.289265 0.000000 0.000000 0.000000 11.997255 -10.743752 -0.299049 8.967606 0.332692 1.328755 8.757238 -0.108128 1.263690 0.000000 0.000000 0.000000 10.835829 -5.349262 -1.094401 7.629102 0.421984 0.517947 7.999516 -0.053153 0.443158 0.000000 0.000000 0.000000 10.289615 2.579707 -0.830690 7.436419 -0.888607 -0.852096 7.478294 0.067731 -0.626155 0.000000 0.000000 0.000000 9.584736 11.052781 -1.774081 7.133503 -1.647843 -2.428379 6.719509 0.279075 -2.050849 0.000000 0.000000 0.000000 0.000000 0.000000 0.000000 0.000000 0.000000 0.000000 -89.906860 0.127734 6.008998 -71.685722 19.571838 -6.562448 -1.222561 -9.071394 40.438164 1.962155 -23.233734 -16.048901 -20.252483 -29.963840 61.602196 8.894258 12.959376 -21.701424 6.658220 8.673700 -15.168352 0.000000 0.000000 0.000000 -17.223036 -5.490296 -0.135509 -10.998448 0.293402 -1.393078 -11.117674 -0.169395 -1.285406 0.000000 0.000000 0.000000 -16.562246 -0.505012 -0.919154 -10.884427 0.408248 -0.589424 -10.804915 -0.066843 -0.473346 0.000000 0.000000 0.000000 -18.711510 7.533988 -0.746849 -12.388321 -0.868642 0.847760 -12.365348 0.084320 0.658560 0.000000 0.000000 0.000000 -19.957033 15.942832 -1.153979 -12.951655 -1.548583 2.642739 -12.805913 0.344674 2.248067 0.000000 0.000000 0.000000 0.000000 0.000000 0.000000 0.000000 0.000000 0.000000 0.137866 -9.175138 11.026092 -0.048585 -0.639715 6.167820 -2.887500 -9.048825 17.701565 -0.796159 0.754513 -19.033457 0.000000 0.000000 0.000000 0.000000 0.000000 0.000000 0.000000 0.000000 0.000000 -1.542130 -6.361460 7.181441 0.057591 0.365556 8.530127 3.734203 -0.568723 16.974072 0.387970 -0.472313 -20.509489 0.000000 0.000000 0.000000 0.000000 0.000000 0.000000 0.000000 0.000000 0.000000 
0.116589 88.895874 2.900890 -0.302641 -0.363781 -7.398178 1.301216 -0.173294 6.679655 -0.904006 0.107091 2.657014 0.752666 -1.582583 1.652244 -0.873823 -0.143739 3.136760 1.272663 2.207698 3.068965 0.341700 2.883194 -3.802566 -1.065321 -0.623343 -18.426552 0.000000 0.000000 0.000000 92.857697 -0.453512 9.529536 64.972801 -32.412189 4.066414 -0.070871 13.136800 23.268169 6.608929 12.735184 -6.885834 19.866905 30.093925 62.071976 -8.438739 -12.076573 -20.434561 -6.298279 -8.089738 -14.275840 0.000000 0.000000 0.000000 11.989597 -10.741400 -0.337484 9.000992 0.336667 1.310128 8.805360 -0.102289 1.244407 0.000000 0.000000 0.000000 10.863371 -5.343575 -1.089085 7.676517 0.422194 0.510218 8.048705 -0.051821 0.437270 0.000000 0.000000 0.000000 10.331909 2.564344 -0.788790 7.520558 -0.889087 -0.842927 7.564177 0.064862 -0.616717 0.000000 0.000000 0.000000 9.572817 11.031502 -1.660625 7.148443 -1.651860 -2.414697 6.755079 0.272835 -2.030326 0.000000 0.000000 0.000000 0.000000 0.000000 0.000000 0.000000 0.000000 0.000000 -89.854836 0.131175 6.038764 -71.855133 19.714985 -6.574913 -1.217173 -9.110773 40.511456 2.142804 -22.934851 -16.048786 -20.241766 -29.970482 61.615543 8.873427 12.934238 -21.664660 6.643917 8.653889 -15.137785 0.000000 0.000000 0.000000 -17.125084 -5.531578 -0.215783 -11.076653 0.294622 -1.378206 -11.174637 -0.165848 -1.274708 0.000000 0.000000 0.000000 -16.466211 -0.531735 -0.974957 -10.966109 0.408308 -0.587384 -10.884940 -0.067108 -0.472239 0.000000 0.000000 0.000000 -18.684938 7.526523 -0.811841 -12.480064 -0.868581 0.847879 -12.440457 0.083909 0.657965 0.000000 0.000000 0.000000 -19.957151 15.941106 -1.226309 -12.996964 -1.551306 2.624277 -12.827477 0.341479 2.245520 0.000000 0.000000 0.000000 0.000000 0.000000 0.000000 0.000000 0.000000 0.000000 0.145757 -9.115981 11.128308 -0.048897 -0.642290 6.091609 -2.836477 -9.070713 17.735754 -0.800516 0.754077 -19.034657 0.000000 0.000000 0.000000 0.000000 0.000000 0.000000 0.000000 0.000000 0.000000 -1.514218 -6.305970 7.166206 0.056365 0.355180 8.623891 3.737948 -0.548695 16.971087 0.370370 -0.476033 -20.535879 0.000000 0.000000 0.000000 0.000000 0.000000 0.000000 0.000000 0.000000 0.000000 
0.121583 88.885010 2.906705 -0.318296 -0.420185 -7.493039 1.305622 -0.164316 6.688632 -0.887549 0.107873 2.643217 0.768055 -1.567831 1.726078 -0.862885 -0.113440 3.202043 1.232998 2.158082 3.044623 0.355428 2.839688 -3.772636 -1.064430 -0.641022 -18.415165 0.000000 0.000000 0.000000 92.761993 -0.460097 9.481254 65.043411 -32.332226 3.965500 -0.059334 13.187040 23.438663 6.621275 12.370049 -6.861463 19.875982 30.093081 62.059418 -8.448112 -12.106760 -20.474064 -6.307040 -8.103737 -14.303345 0.000000 0.000000 0.000000 12.067723 -10.768032 -0.350804 9.110291 0.341990 1.287293 8.923018 -0.096620 1.222026 0.000000 0.000000 0.000000 10.952792 -5.356439 -1.072857 7.785291 0.424176 0.500743 8.155014 -0.049608 0.429218 0.000000 0.000000 0.000000 10.405474 2.558681 -0.725065 7.629715 -0.891212 -0.833912 7.672551 0.062547 -0.608074 0.000000 0.000000 0.000000 9.582124 11.039217 -1.521420 7.193871 -1.655994 -2.406540 6.815041 0.269728 -2.022152 0.000000 0.000000 0.000000 0.000000 0.000000 0.000000 0.000000 0.000000 0.000000 -89.821083 0.138255 6.048182 -72.001656 19.742035 -6.584551 -1.180862 -9.152028 40.539875 2.161499 -22.677916 -15.896790 -20.249619 -29.972334 61.613930 8.869555 12.931890 -21.678055 6.642836 8.656669 -15.140213 0.000000 0.000000 0.000000 -17.125862 -5.559453 -0.197157 -11.125538 0.297250 -1.360365 -11.203129 -0.162439 -1.260711 0.000000 0.000000 0.000000 -16.455923 -0.544255 -0.952010 -11.019899 0.409085 -0.581471 -10.945189 -0.066741 -0.467175 0.000000 0.000000 0.000000 -18.741312 7.529806 -0.769495 -12.542173 -0.869831 0.847561 -12.502707 0.082870 0.655958 0.000000 0.000000 0.000000 -20.058399 15.942987 -1.203043 -13.049675 -1.552909 2.623030 -12.856311 0.343255 2.252253 0.000000 0.000000 0.000000 0.000000 0.000000 0.000000 0.000000 0.000000 0.000000 0.137946 -9.058930 11.245889 -0.048984 -0.640838 6.078479 -2.792075 -9.084888 17.758558 -0.803678 0.754569 -19.038723 0.000000 0.000000 0.000000 0.000000 0.000000 0.000000 0.000000 0.000000 0.000000 -1.501721 -6.268820 7.169194 0.055785 0.352046 8.740824 3.749226 -0.529892 16.950453 0.361849 -0.479802 -20.544609 0.000000 0.000000 0.000000 0.000000 0.000000 0.000000 0.000000 0.000000 0.000000 
0.128834 88.877251 2.917340 -0.334552 -0.470375 -7.591403 1.318270 -0.157318 6.691231 -0.881811 0.110652 2.629886 0.778421 -1.541595 1.797854 -0.857358 -0.085669 3.260907 1.166240 2.149420 3.084976 0.375438 2.819787 -3.718251 -1.053728 -0.652354 -18.438017 0.000000 0.000000 0.000000 92.702003 -0.458090 9.464902 65.188774 -32.152119 3.800292 -0.054784 13.303979 23.596998 6.650275 12.064763 -6.791481 19.893444 30.089342 62.038181 -8.465148 -12.153691 -20.535467 -6.322683 -8.130603 -14.343847 0.000000 0.000000 0.000000 12.223140 -10.805890 -0.335439 9.230357 0.352555 1.252590 9.049771 -0.085577 1.190955 0.000000 0.000000 0.000000 11.118175 -5.384212 -1.032348 7.904512 0.429169 0.486086 8.270748 -0.045185 0.417158 0.000000 0.000000 0.000000 10.558432 2.538587 -0.632372 7.746458 -0.897854 -0.815341 7.786105 0.057162 -0.592742 0.000000 0.000000 0.000000 9.660034 11.036613 -1.362367 7.258739 -1.673239 -2.365731 6.888749 0.255825 -1.988426 0.000000 0.000000 0.000000 0.000000 0.000000 0.000000 0.000000 0.000000 0.000000 -89.803825 0.135152 6.052607 -72.065010 19.748676 -6.547836 -1.151426 -9.190688 40.603695 2.040636 -22.480391 -15.734246 -20.247686 -29.972546 61.614834 8.873167 12.913892 -21.675589 6.641334 8.647126 -15.132439 0.000000 0.000000 0.000000 -17.136391 -5.571229 -0.132735 -11.118566 0.308818 -1.317211 -11.181200 -0.150109 -1.223563 0.000000 0.000000 0.000000 -16.459654 -0.548136 -0.887233 -11.013777 0.413886 -0.564260 -10.949771 -0.062803 -0.452852 0.000000 0.000000 0.000000 -18.792656 7.525517 -0.682601 -12.552064 -0.876834 0.831348 -12.507766 0.077335 0.642492 0.000000 0.000000 0.000000 -20.160452 15.927776 -1.146849 -13.060230 -1.571380 2.575528 -12.845119 0.329433 2.219666 0.000000 0.000000 0.000000 0.000000 0.000000 0.000000 0.000000 0.000000 0.000000 0.125627 -9.001001 11.359509 -0.049196 -0.638614 6.091394 -2.757252 -9.069752 17.772367 -0.803865 0.752985 -19.041538 0.000000 0.000000 0.000000 0.000000 0.000000 0.000000 0.000000 0.000000 0.000000 -1.496049 -6.256538 7.189468 0.055313 0.348180 8.845909 3.752449 -0.494083 16.937256 0.358075 -0.481473 -20.550888 0.000000 0.000000 0.000000 0.000000 0.000000 0.000000 0.000000 0.000000 0.000000 
